PathFileType	4	(X/Y/Z)	Walk5.trc
DataRate	CameraRate	NumFrames	NumMarkers	Units	OrigDataRate	OrigDataStartFrame	OrigNumFrames
200.000000	200.000000	6	61	mm	200.000000	535	813
Frame#	Times		RCAR		LToe		LMT5		LTB1		RWRU		LLFC		RWRR		RFHD		RACR1		RFA1		LMT1		LUA1		LFA1		LTH2		LElbow		STRN		LACR1		LCAR		LASI		RTH3		RTB2		LWRU		RPSI		RLFC		LFHD		LWRR		C7		LPSI		RToe		RMT1		RMT5		RMFC		CLAV		RTB3		RTB1		LMFC		RTB4		LTH1		LTH3		RTH2		RCAL		RASI		RLMAL		LTB2		RMMAL		LTB4		LBHD		RBHD		RTH4		RBack		LTB3		RUA1		LMMAL		LTH4		RElbow		RTH1		LCAL		T10		LElbowM		LLMAL		RElbowM
			X1	Y1	Z1	X2	Y2	Z2	X3	Y3	Z3	X4	Y4	Z4	X5	Y5	Z5	X6	Y6	Z6	X7	Y7	Z7	X8	Y8	Z8	X9	Y9	Z9	X10	Y10	Z10	X11	Y11	Z11	X12	Y12	Z12	X13	Y13	Z13	X14	Y14	Z14	X15	Y15	Z15	X16	Y16	Z16	X17	Y17	Z17	X18	Y18	Z18	X19	Y19	Z19	X20	Y20	Z20	X21	Y21	Z21	X22	Y22	Z22	X23	Y23	Z23	X24	Y24	Z24	X25	Y25	Z25	X26	Y26	Z26	X27	Y27	Z27	X28	Y28	Z28	X29	Y29	Z29	X30	Y30	Z30	X31	Y31	Z31	X32	Y32	Z32	X33	Y33	Z33	X34	Y34	Z34	X35	Y35	Z35	X36	Y36	Z36	X37	Y37	Z37	X38	Y38	Z38	X39	Y39	Z39	X40	Y40	Z40	X41	Y41	Z41	X42	Y42	Z42	X43	Y43	Z43	X44	Y44	Z44	X45	Y45	Z45	X46	Y46	Z46	X47	Y47	Z47	X48	Y48	Z48	X49	Y49	Z49	X50	Y50	Z50	X51	Y51	Z51	X52	Y52	Z52	X53	Y53	Z53	X54	Y54	Z54	X55	Y55	Z55	X56	Y56	Z56	X57	Y57	Z57	X58	Y58	Z58	X59	Y59	Z59	X60	Y60	Z60	X61	Y61	Z61

535	2.675	-141.11	853.02	367.12	-98.948	31.059	-44.028	-202.97	27.759	-116.1	-235.55	361.06	-41.245	-198.72	894.69	358.28	-260.05	507.66	-150.21	-124.9	897.72	309.81	-2.8804	1706.6	93.306	-143.43	1505.5	202.7	-170.44	1038.3	333.64	-155.02	45.943	-27	-159.95	1361	-255.21	-90.211	1072.8	-317.4	-150.75	736.14	-179.61	-187.05	1193.6	-309.82	-27.78	1302.2	-0.7698	-155.97	1542.6	-168.8	-27.172	917.99	-332.77	-107.95	1042.8	-162.65	-74.534	658.3	210.89	-0.4764	304.34	180.82	-103.91	940.89	-331.12	-323.89	1073	59.661	-24.721	538.77	204.46	0.10514	1714.3	-11.437	-29.772	954.34	-275.47	-252.57	1568.5	27.929	-328.28	1087.3	-48.496	132.76	73.332	132.7	85.573	78.294	114.31	40.854	53.395	195.57	-28.796	523.2	58.166	-88.911	1476.7	1.6217	-11.164	221.85	114.7	18.339	391.91	124.45	-253.5	508.88	-7.5675	3.2373	306.27	119.06	-200.62	823.87	-207.52	-216.29	653.16	-175.11	-60.362	762.17	221.15	-132.92	66.498	108.87	-104.04	1048.1	159.54	-76.675	100.98	156.54	-230.34	269.07	-93.513	-38.119	128.83	67.062	-250.86	277.68	-33.551	-165.96	1705	-36.578	-174.06	1698.3	105.5	-112.35	733.4	216.7	-312.67	1450.2	139.19	-262.88	192.83	-27.288	-182.9	1327.9	273.32	-293.41	96.702	16.576	-208.38	738.81	-193.09	-244.7	1173.3	312.85	-152.66	812.91	221.14	-381.52	44.825	-39.22	-305.04	1213.1	3.8493	-220.43	1161.2	-227.07	-316.91	68.463	-81.847	-266.56	1148.9	221.22
536	2.68	-136.32	852.47	367.25	-98.921	31.074	-44.055	-202.99	27.741	-116.08	-234.04	360.72	-41.075	-193.97	894.07	358.35	-257.65	507.5	-149.97	-120.11	897.19	309.98	1.6999	1706.1	93.677	-138.8	1504.9	202.97	-165.83	1037.7	333.8	-154.99	45.921	-26.945	-154.9	1360.4	-255.02	-84.356	1072.4	-317.1	-146.96	735.35	-178.75	-181.61	1192.9	-309.71	-22.992	1301.6	-0.455	-151.25	1541.9	-168.58	-20.743	917.87	-332.35	-103.47	1041.7	-162.48	-69.692	657.46	210.99	11.14	303.97	180.93	-97.564	940.47	-330.78	-318.79	1072.2	59.91	-19.197	537.78	204.6	4.7254	1713.8	-11.07	-23.5	954.24	-275.07	-247.87	1567.8	28.142	-323.21	1086.7	-48.228	150.39	76.305	132.1	103.03	80	114.02	59.34	54.114	195.52	-23.39	522.11	58.025	-84.141	1476.1	1.8978	2.4369	221.16	114.91	27.285	391.94	124.44	-251.36	508.76	-7.3348	14.536	305.93	119.15	-196.15	823.39	-207.35	-212.88	652.8	-174.82	-55.513	761.3	221.62	-115.1	62.596	109.75	-99.077	1047.4	160.05	-59.563	98.559	157.1	-229.28	268.72	-93.345	-22.17	127.39	67.442	-249.74	277.42	-33.426	-161.33	1704.4	-36.285	-169.51	1697.6	105.8	-107.64	732.59	216.83	-307.98	1449.5	139.31	-262.2	192.61	-27.194	-178.34	1327.3	273.52	-293.29	96.64	16.654	-204.4	738.49	-192.98	-240.18	1172.7	312.99	-147.84	812.09	221.4	-381.53	44.922	-39.215	-300.02	1212.3	4.1462	-215.02	1160.4	-227.01	-316.83	68.519	-81.815	-261.93	1148.2	221.32
537	2.685	-131.5	851.89	367.4	-98.891	31.086	-44.084	-203.01	27.723	-116.07	-232.51	360.37	-40.894	-189.18	893.41	358.44	-255.23	507.33	-149.73	-115.29	896.63	310.17	6.2917	1705.5	94.065	-134.15	1504.2	203.26	-161.17	1037.1	333.97	-154.96	45.898	-26.891	-149.86	1359.7	-254.81	-78.52	1072	-316.76	-143.16	734.54	-177.88	-176.17	1192.2	-309.57	-18.176	1301.1	-0.11948	-146.52	1541.2	-168.35	-14.34	917.72	-331.88	-99.249	1040.5	-162.28	-64.981	656.53	211.06	22.655	303.7	181.05	-91.241	940.01	-330.41	-313.67	1071.4	60.181	-13.782	536.72	204.71	9.3535	1713.2	-10.688	-17.261	954.09	-274.61	-243.16	1567.1	28.374	-318.11	1086	-47.937	167.77	79.438	131.47	120.26	81.877	113.72	77.668	55.067	195.5	-18.094	520.94	57.847	-79.354	1475.4	2.1905	15.884	220.6	115.16	36.081	391.98	124.42	-249.2	508.63	-7.085	25.683	305.66	119.26	-191.66	822.88	-207.17	-209.46	652.42	-174.51	-50.763	760.33	222.1	-97.37	58.964	110.79	-94.076	1046.7	160.56	-42.543	96.388	157.76	-228.22	268.37	-93.168	-6.3875	126.13	67.901	-248.62	277.16	-33.294	-156.68	1703.8	-35.977	-164.94	1697	106.12	-103.08	731.69	216.91	-303.27	1448.7	139.44	-261.51	192.39	-27.095	-173.74	1326.6	273.75	-293.18	96.576	16.734	-200.41	738.15	-192.86	-235.61	1172	313.14	-143.11	811.18	221.62	-381.54	45.028	-39.21	-294.97	1211.6	4.4741	-209.64	1159.6	-226.93	-316.75	68.584	-81.786	-257.25	1147.6	221.44
538	2.69	-126.65	851.26	367.56	-98.857	31.096	-44.115	-203.03	27.706	-116.06	-230.97	360.01	-40.7	-184.36	892.71	358.56	-252.8	507.16	-149.47	-110.42	896.02	310.37	10.896	1704.9	94.47	-129.5	1503.6	203.56	-156.47	1036.4	334.16	-154.93	45.876	-26.839	-144.81	1359	-254.58	-72.702	1071.5	-316.38	-139.34	733.71	-177	-170.75	1191.5	-309.41	-13.329	1300.4	0.23508	-141.78	1540.5	-168.09	-7.9634	917.52	-331.37	-95.318	1039.1	-162.04	-60.396	655.49	211.09	34.059	303.54	181.18	-84.943	939.53	-330.01	-308.52	1070.6	60.476	-8.4698	535.59	204.81	13.99	1712.7	-10.292	-11.055	953.9	-274.12	-238.43	1566.3	28.627	-313	1085.4	-47.622	184.88	82.717	130.81	137.25	83.914	113.43	95.808	56.247	195.51	-12.906	519.7	57.632	-74.551	1474.8	2.4999	29.164	220.17	115.44	44.725	392.03	124.37	-247.03	508.5	-6.817	36.67	305.46	119.38	-187.17	822.34	-206.99	-206.01	652.02	-174.2	-46.108	759.24	222.57	-79.76	55.605	111.98	-89.036	1046	161.06	-25.644	94.468	158.52	-227.15	268.01	-92.984	9.2071	125.04	68.435	-247.48	276.88	-33.156	-152.03	1703.1	-35.652	-160.36	1696.3	106.46	-98.657	730.7	216.95	-298.55	1448	139.59	-260.82	192.16	-26.99	-169.12	1325.9	273.99	-293.06	96.51	16.817	-196.4	737.78	-192.72	-231	1171.3	313.31	-138.44	810.2	221.78	-381.55	45.144	-39.204	-289.91	1210.7	4.8338	-204.27	1158.7	-226.83	-316.67	68.657	-81.758	-252.52	1146.8	221.57
539	2.695	-121.76	850.6	367.75	-98.819	31.103	-44.15	-203.05	27.69	-116.06	-229.42	359.64	-40.493	-179.5	891.98	358.69	-250.33	506.97	-149.19	-105.52	895.38	310.59	15.512	1704.3	94.888	-124.82	1502.9	203.89	-151.72	1035.7	334.37	-154.89	45.854	-26.789	-139.76	1358.3	-254.32	-66.906	1071.1	-315.97	-135.51	732.87	-176.13	-165.34	1190.7	-309.22	-8.4495	1299.8	0.60724	-137.02	1539.7	-167.81	-1.6159	917.3	-330.83	-91.706	1037.5	-161.76	-55.933	654.36	211.09	45.337	303.48	181.32	-78.671	939.02	-329.58	-303.36	1069.7	60.797	-3.2553	534.41	204.89	18.635	1712.1	-9.8805	-4.8833	953.67	-273.57	-233.7	1565.5	28.901	-307.87	1084.6	-47.278	201.69	86.127	130.13	153.96	86.097	113.14	113.73	57.647	195.56	-7.8236	518.38	57.382	-69.731	1474.1	2.8263	42.261	219.86	115.77	53.218	392.09	124.31	-244.81	508.36	-6.5301	47.491	305.32	119.52	-182.66	821.78	-206.8	-202.54	651.61	-173.87	-41.545	758.04	223.04	-62.303	52.518	113.32	-83.956	1045.3	161.54	-8.8996	92.799	159.38	-226.07	267.64	-92.793	24.591	124.12	69.042	-246.33	276.6	-33.008	-147.37	1702.4	-35.311	-155.76	1695.6	106.81	-94.344	729.64	216.95	-293.81	1447.2	139.77	-260.12	191.93	-26.879	-164.47	1325.2	274.25	-292.93	96.44	16.9	-192.37	737.37	-192.56	-226.34	1170.5	313.5	-133.84	809.14	221.89	-381.56	45.269	-39.198	-284.83	1209.9	5.2264	-198.92	1157.8	-226.7	-316.59	68.738	-81.729	-247.75	1146.1	221.73
540	2.7	-116.84	849.91	367.95	-98.776	31.108	-44.189	-203.07	27.674	-116.07	-227.85	359.26	-40.273	-174.61	891.22	358.85	-247.84	506.77	-148.9	-100.59	894.7	310.82	20.141	1703.7	95.32	-120.14	1502.1	204.24	-146.94	1035	334.6	-154.86	45.834	-26.741	-134.71	1357.5	-254.04	-61.131	1070.6	-315.51	-131.66	732.03	-175.28	-159.94	1189.9	-309.01	-3.5385	1299.2	0.99596	-132.26	1538.9	-167.51	4.7007	917.04	-330.24	-88.422	1035.7	-161.45	-51.586	653.14	211.05	56.476	303.51	181.46	-72.429	938.48	-329.12	-298.17	1068.8	61.148	1.8688	533.18	204.94	23.289	1711.5	-9.4554	1.2526	953.41	-272.99	-228.95	1564.7	29.196	-302.72	1083.9	-46.905	218.18	89.648	129.44	170.37	88.413	112.87	131.38	59.256	195.66	-2.8426	517.01	57.102	-64.893	1473.4	3.1703	55.162	219.67	116.14	61.563	392.14	124.24	-242.56	508.2	-6.2236	58.139	305.24	119.67	-178.14	821.2	-206.61	-199.05	651.17	-173.53	-37.067	756.74	223.5	-45.033	49.701	114.78	-78.83	1044.6	162	7.6571	91.376	160.33	-224.97	267.27	-92.597	39.742	123.37	69.712	-245.17	276.3	-32.85	-142.7	1701.7	-34.953	-151.15	1694.8	107.18	-90.121	728.5	216.92	-289.05	1446.3	139.96	-259.42	191.7	-26.762	-159.8	1324.4	274.54	-292.8	96.368	16.985	-188.33	736.92	-192.36	-221.64	1169.7	313.71	-129.3	808.01	221.95	-381.57	45.404	-39.191	-279.74	1209	5.6524	-193.58	1156.9	-226.54	-316.51	68.828	-81.701	-242.94	1145.3	221.9
